<?xml version="1.0" standalone="no"?>
<!DOCTYPE svg PUBLIC "-//W3C//DTD SVG 20010904//EN"
 "http://www.w3.org/TR/2001/REC-SVG-20010904/DTD/svg10.dtd">
<svg version="1.0" xmlns="http://www.w3.org/2000/svg"
 width="512.000000pt" height="279.000000pt" viewBox="0 0 512.000000 279.000000"
 preserveAspectRatio="xMidYMid meet">
<metadata>
Created by potrace 1.16, written by Peter Selinger 2001-2019
</metadata>
<g transform="translate(0.000000,279.000000) scale(0.100000,-0.100000)"
fill="#000000" stroke="none">
<path d="M2560 2790 l-2560 0 0 -1395 0 -1395 2560 0 2560 0 0 1395 0 1395
-2560 0z m15 -33 l2280 -2 52 -24 c29 -13 72 -44 96 -70 24 -26 52 -69 63 -96
18 -48 19 -90 19 -1175 l0 -1125 -24 -52 c-13 -29 -44 -72 -70 -96 -26 -24
-69 -52 -96 -63 -49 -19 -107 -19 -2340 -19 l-2290 0 -55 26 c-30 14 -70 41
-89 60 -19 19 -46 59 -60 89 l-26 55 0 1125 c0 1083 1 1127 19 1174 11 28 37
70 60 94 22 24 54 51 70 59 17 9 49 22 71 29 32 10 501 12 2320 11z"/>
<path d="M3017 2490 c-56 0 -62 -2 -95 -37 -29 -31 -34 -34 -30 -15 5 16 2 22
-10 22 -10 0 -51 -19 -92 -41 -41 -22 -110 -69 -155 -104 -44 -34 -90 -73
-102 -86 -19 -21 -22 -40 -29 -159 l-8 -135 -19 103 c-16 81 -22 100 -32 92
-7 -6 -38 -48 -68 -93 -30 -45 -72 -116 -92 -157 -21 -41 -49 -104 -62 -139
-13 -36 -35 -109 -48 -164 -14 -55 -29 -134 -35 -176 -10 -72 -9 -80 16 -141
14 -35 48 -109 76 -164 50 -100 50 -101 18 -71 -18 17 -52 58 -76 91 -24 34
-56 87 -70 118 -14 32 -28 56 -30 53 -2 -2 5 -33 15 -69 10 -36 28 -85 39
-110 11 -25 36 -70 55 -99 20 -30 46 -66 58 -82 l21 -28 -35 21 c-19 12 -56
39 -81 61 -25 23 -46 35 -46 27 0 -7 54 -65 120 -129 l120 -116 0 -116 0 -117
49 0 50 0 -2 126 -2 126 119 71 c69 42 146 97 181 132 34 33 68 71 75 84 l13
24 -44 -25 c-24 -14 -62 -33 -84 -42 l-40 -16 40 32 c22 18 63 55 92 82 29 26
61 67 72 90 11 22 45 142 76 265 30 123 54 225 52 227 -1 1 -34 -13 -72 -32
-39 -18 -74 -34 -79 -34 -5 0 27 26 71 57 l81 58 36 130 c20 72 36 134 36 138
0 4 -10 7 -22 7 -22 1 -22 1 4 15 21 12 29 28 43 87 10 40 20 119 23 176 4 85
2 110 -13 142 l-18 40 -60 0z m44 -40 c5 0 13 -19 20 -42 6 -25 8 -68 5 -103
-4 -33 -14 -98 -23 -144 l-16 -83 -51 -24 c-28 -13 -65 -24 -83 -24 -26 0 -42
-11 -84 -55 -43 -45 -58 -55 -85 -55 -19 0 -34 3 -34 6 0 4 19 42 42 85 l42
79 83 0 c49 0 91 -5 103 -12 16 -10 22 -10 35 3 13 13 13 17 1 34 -13 17 -18
18 -35 8 -12 -8 -53 -13 -96 -13 -62 0 -73 2 -69 15 5 11 23 15 74 15 54 0 70
4 84 19 10 11 28 21 40 23 15 2 21 10 21 28 0 18 -5 25 -20 25 -11 0 -24 -10
-30 -21 -6 -12 -17 -29 -24 -38 -9 -11 -30 -16 -68 -16 -48 0 -54 2 -43 15 7
8 24 15 39 15 19 0 42 16 81 55 29 30 63 55 74 57 13 2 22 12 24 24 2 13 -4
24 -14 28 -9 3 -23 1 -30 -5 -8 -6 -14 -16 -14 -22 0 -6 -23 -35 -52 -64 -29
-29 -58 -53 -65 -53 -7 0 -13 3 -13 6 0 3 10 20 22 37 12 18 51 69 86 115 36
45 69 82 73 82z m-241 -110 c11 0 23 -7 26 -15 4 -8 2 -21 -4 -28 -6 -6 -12
-23 -15 -37 l-4 -25 -2 27 c0 15 -5 30 -11 33 -5 3 -10 15 -10 26 0 12 7 19
20 19z m220 0 c6 0 10 -4 10 -10 0 -5 -4 -10 -10 -10 -5 0 -10 5 -10 10 0 6 5
10 10 10z m-311 -20 c10 0 21 -7 25 -15 3 -8 -1 -21 -9 -29 -8 -8 -15 -25 -15
-38 0 -15 -16 -39 -41 -63 l-40 -40 3 -72 c2 -39 0 -69 -4 -66 -5 2 -8 35 -8
72 0 65 1 68 40 106 26 26 40 48 40 65 0 14 -5 31 -11 37 -7 7 -9 19 -6 27 4
9 15 16 26 16z m281 -100 c6 0 10 -4 10 -10 0 -5 -4 -10 -10 -10 -5 0 -10 5
-10 10 0 6 5 10 10 10z m-436 -70 c8 0 17 -4 20 -9 3 -5 -2 -8 -11 -7 -9 0
-18 -5 -21 -13 -3 -10 1 -12 17 -8 11 3 21 1 21 -4 0 -5 -4 -9 -10 -9 -5 0
-10 -24 -10 -53 0 -46 4 -57 30 -82 16 -16 28 -31 25 -34 -3 -2 -19 8 -35 24
-26 25 -30 36 -30 85 0 31 -5 61 -11 67 -7 7 -9 19 -6 27 4 9 13 16 21 16z
m422 -40 c2 0 4 -4 4 -10 0 -5 -5 -10 -11 -10 -5 0 -7 5 -4 10 3 6 8 10 11 10z
m-38 -100 c65 0 73 -2 68 -17 -2 -10 -17 -61 -31 -114 -15 -53 -30 -100 -33
-106 -4 -5 -36 -31 -71 -56 -62 -46 -65 -47 -136 -47 -67 0 -74 2 -89 25 -9
14 -23 25 -32 25 -9 0 -14 6 -12 13 3 6 21 13 41 15 32 3 37 0 37 -17 0 -18 6
-21 45 -21 25 0 45 -5 45 -11 0 -6 10 -9 23 -7 14 2 23 11 25 26 2 13 -3 25
-13 28 -9 4 -21 2 -28 -5 -6 -6 -26 -11 -44 -11 -26 0 -33 4 -33 20 0 17 -7
20 -40 20 -22 0 -40 3 -40 6 0 3 5 14 10 25 9 16 22 19 82 19 69 0 71 1 110
39 21 22 47 41 56 43 9 2 18 13 20 24 2 12 -3 24 -11 27 -8 3 -19 2 -26 -2 -7
-5 -13 -15 -15 -25 -1 -9 -16 -31 -34 -49 -30 -31 -34 -32 -96 -29 -65 4 -65
4 -54 28 9 20 19 24 52 24 37 0 48 6 96 55 l54 55 74 0z m-538 -40 c11 0 23
-7 26 -15 4 -8 2 -21 -4 -28 -6 -6 -12 -23 -15 -37 l-4 -25 -2 27 c0 15 -5 30
-11 33 -5 3 -10 15 -10 26 0 12 7 19 20 19z m275 0 c3 0 -5 -21 -19 -48 -13
-26 -36 -76 -51 -112 -14 -36 -42 -108 -61 -160 -19 -52 -50 -153 -69 -225
-19 -71 -43 -183 -54 -248 -12 -65 -25 -188 -31 -275 -6 -86 -8 -199 -4 -250
6 -89 6 -92 -14 -92 -20 0 -21 6 -24 113 -2 61 0 172 5 244 4 73 18 193 32
267 14 74 41 187 61 252 19 66 55 167 79 225 24 59 67 152 94 208 28 55 53
101 56 101z m201 -30 c2 0 4 -4 4 -10 0 -5 -5 -10 -11 -10 -5 0 -7 5 -4 10 3
6 8 10 11 10z m-416 -100 c4 0 13 -7 20 -15 10 -12 10 -18 0 -30 -7 -8 -18
-15 -25 -15 -7 0 -16 7 -19 16 -4 9 -1 23 5 30 6 8 15 14 19 14z m-157 -20 c8
0 20 -7 27 -15 9 -11 10 -18 1 -28 -8 -11 -6 -18 9 -32 11 -10 20 -22 20 -27
0 -4 -18 10 -41 32 -26 25 -39 45 -35 55 3 8 12 15 19 15z m164 -72 c2 -14 11
-32 19 -38 8 -7 14 -18 14 -24 0 -6 -9 0 -20 14 -11 14 -19 36 -18 50 1 25 1
25 5 -2z m323 -18 c6 0 10 -4 10 -10 0 -5 -4 -10 -10 -10 -5 0 -10 5 -10 10 0
6 5 10 10 10z m-518 -20 c13 0 18 -7 18 -27 0 -18 20 -49 70 -104 39 -42 70
-80 70 -83 0 -3 -35 31 -77 77 -42 45 -85 85 -95 89 -10 4 -18 14 -18 21 0 8
3 17 7 20 3 4 15 7 25 7z m331 -10 c7 0 24 -11 37 -25 20 -21 33 -25 79 -25
52 -1 55 -2 36 -16 -11 -8 -31 -24 -45 -35 l-25 -20 40 6 c22 4 76 22 119 40
44 19 81 33 83 31 2 -2 -13 -69 -33 -150 l-36 -146 -49 0 c-27 0 -49 -4 -49
-10 0 -5 20 -10 45 -10 25 0 45 -4 45 -8 0 -5 -7 -32 -16 -62 -12 -39 -30 -69
-72 -113 -31 -32 -98 -91 -150 -129 -51 -39 -91 -72 -89 -74 2 -2 25 3 52 10
28 7 68 21 90 29 l40 17 -43 -38 c-23 -21 -90 -66 -148 -100 l-105 -62 6 83
c3 45 11 120 16 167 6 47 13 93 16 103 4 14 8 16 19 6 10 -8 14 -37 14 -109 0
-78 -3 -99 -15 -104 -8 -3 -15 -12 -15 -19 0 -8 7 -20 15 -27 12 -10 19 -10
28 -1 8 8 10 50 8 134 -2 110 -5 124 -25 147 -20 22 -22 30 -14 68 7 30 14 42
27 42 10 0 27 -10 38 -22 15 -17 21 -37 22 -76 0 -29 -4 -61 -11 -71 -6 -10
-8 -26 -5 -35 4 -10 15 -16 24 -14 15 3 18 13 15 58 l-2 55 40 -45 c37 -42 41
-44 56 -28 9 9 14 24 11 32 -4 9 -16 16 -29 16 -12 0 -35 12 -50 27 -15 15
-28 36 -28 47 0 11 -12 33 -27 48 -15 15 -35 28 -46 28 -13 0 -18 6 -15 23 2
17 11 23 37 25 28 3 40 -3 72 -34 22 -21 39 -43 39 -49 0 -6 14 -24 30 -40 17
-16 30 -37 30 -47 0 -12 7 -18 24 -18 13 0 26 6 29 13 2 6 0 20 -5 30 -6 11
-16 16 -27 12 -11 -3 -24 5 -39 25 -12 16 -22 33 -22 37 0 4 -19 27 -42 50
-35 36 -49 43 -80 43 -29 0 -36 3 -32 15 5 11 21 15 60 15 50 0 56 -3 94 -42
27 -29 40 -51 40 -70 0 -26 3 -28 39 -28 22 0 43 -4 46 -10 3 -5 15 -10 26
-10 11 0 22 7 26 16 3 8 -1 22 -9 31 -12 12 -20 13 -36 4 -11 -6 -32 -11 -46
-11 -20 0 -26 5 -26 22 0 13 -20 42 -47 70 -45 45 -50 48 -100 48 -29 0 -53 5
-53 10 0 6 15 10 33 10 18 0 37 4 43 9 5 5 30 11 57 12 43 3 51 0 90 -37 23
-22 54 -46 69 -53 15 -8 34 -11 42 -8 9 4 16 13 16 20 0 8 -7 20 -15 27 -12
10 -19 10 -27 2 -7 -7 -20 -12 -29 -12 -9 0 -33 20 -53 45 -36 43 -40 45 -90
45 -35 0 -58 -5 -66 -15 -7 -8 -23 -15 -36 -15 -13 0 -24 6 -24 13 0 6 4 17 8
23 4 7 32 15 62 18 30 4 78 9 106 12 39 4 53 2 63 -10 8 -9 24 -16 37 -16 13
0 24 -4 24 -9 0 -5 7 -11 15 -15 8 -3 21 2 29 10 8 8 13 21 9 30 -4 11 -15 13
-47 9 -32 -5 -45 -3 -55 9 -10 11 -31 16 -72 16 -32 0 -61 -4 -64 -10 -3 -5
-27 -10 -52 -10 -37 0 -44 3 -39 16 3 9 6 20 6 25 0 5 9 9 19 9 11 0 23 -4 26
-10 3 -5 15 -10 26 -10 11 0 22 7 26 16 3 8 -2 23 -11 32 -12 13 -18 14 -28 4
-7 -7 -20 -12 -30 -12 -10 0 -15 6 -13 13 2 6 9 24 14 40 6 15 17 27 24 27z
m-214 -45 c18 -16 42 -43 54 -59 11 -16 16 -27 10 -23 -6 4 -30 31 -54 60 -36
44 -38 47 -10 22z m231 -35 c6 0 10 -4 10 -10 0 -5 -4 -10 -10 -10 -5 0 -10 5
-10 10 0 6 5 10 10 10z m-401 -30 c5 0 7 -9 4 -20 -4 -14 0 -20 12 -20 12 0
16 6 12 20 -3 11 -1 20 5 20 5 0 8 -11 6 -24 -2 -18 12 -42 54 -88 52 -60 56
-68 59 -121 2 -31 1 -57 -3 -57 -5 0 -8 24 -8 54 0 51 -3 57 -57 119 -32 35
-66 67 -75 70 -10 3 -18 15 -18 26 0 12 4 21 9 21z m625 -50 c3 0 7 -4 11 -9
3 -5 1 -12 -5 -16 -5 -3 -10 1 -10 9 0 9 2 16 4 16z m-637 -60 c7 0 16 -7 20
-16 3 -9 1 -25 -5 -35 -7 -10 -12 -52 -12 -92 l0 -73 65 -64 c36 -35 65 -69
65 -75 0 -5 -31 24 -70 65 l-69 75 -1 83 c0 48 -4 82 -10 82 -5 0 -10 8 -10
18 0 10 3 22 7 25 3 4 12 7 20 7z m623 -70 c7 0 10 -3 7 -7 -4 -3 -10 -3 -14
0 -3 4 0 7 7 7z m-519 -30 c11 0 22 -7 26 -16 3 -8 1 -20 -6 -27 -6 -6 -11
-29 -11 -51 0 -27 7 -47 22 -63 12 -13 16 -23 10 -23 -6 0 -18 10 -26 22 -9
12 -16 40 -16 61 0 21 -7 45 -15 53 -8 8 -12 21 -9 29 4 8 15 15 25 15z m483
-80 c3 0 8 -4 11 -10 3 -5 1 -10 -4 -10 -6 0 -11 5 -11 10 0 6 2 10 4 10z
m-80 -80 c3 0 8 -4 11 -10 3 -5 1 -10 -4 -10 -6 0 -11 5 -11 10 0 6 2 10 4 10z
m-64 -70 c6 0 10 -4 10 -10 0 -5 -4 -10 -10 -10 -5 0 -10 5 -10 10 0 6 5 10
10 10z m-93 -33 c3 -4 3 -10 0 -14 -4 -3 -7 0 -7 7 0 7 3 10 7 7z m-77 -177
c6 0 10 -2 10 -4 0 -3 -4 -8 -10 -11 -5 -3 -10 -1 -10 4 0 6 5 11 10 11z"/>
<path d="M2826 2330 c-9 0 -16 -7 -16 -16 0 -9 5 -14 12 -12 6 2 14 10 16 16
2 7 -3 12 -12 12z"/>
<path d="M2730 2310 c-5 0 -11 -4 -15 -9 -3 -5 -1 -12 5 -16 5 -3 15 -3 20 0
6 4 8 11 5 16 -4 5 -10 9 -15 9z"/>
<path d="M2951 1899 c-3 0 -12 -3 -18 -6 -7 -2 -13 -12 -13 -22 0 -9 -15 -31
-33 -49 -28 -27 -41 -32 -80 -32 -26 0 -47 -4 -47 -10 0 -5 24 -10 53 -10 48
0 57 4 87 35 19 19 42 35 52 35 10 0 21 7 24 15 4 8 1 22 -6 30 -7 8 -15 15
-19 14z m-7 -19 c3 0 8 -4 11 -10 3 -5 1 -10 -4 -10 -6 0 -11 5 -11 10 0 6 2
10 4 10z"/>
<path d="M2425 1960 c-8 0 -15 -7 -15 -15 0 -8 7 -15 15 -15 8 0 15 7 15 15 0
8 -7 15 -15 15z"/>
<path d="M2480 1830 c-5 0 -12 -5 -16 -11 -3 -6 -1 -16 5 -22 8 -8 14 -8 22 0
6 6 8 16 5 22 -4 6 -11 11 -16 11z"/>
<path d="M2330 1810 c-5 0 -12 -4 -15 -10 -3 -5 -3 -15 0 -20 5 -8 11 -7 21 1
7 6 11 15 8 20 -3 5 -9 9 -14 9z"/>
<path d="M2285 1700 c-8 0 -15 -7 -15 -15 0 -8 7 -15 15 -15 8 0 15 7 15 15 0
8 -7 15 -15 15z"/>
<path d="M2225 1470 c-10 0 -15 -7 -13 -17 2 -10 8 -18 13 -18 5 0 11 8 13 18
2 10 -3 17 -13 17z"/>
<path d="M2337 1370 c-8 0 -17 -3 -20 -6 -4 -4 -4 -11 -1 -15 3 -5 12 -9 20
-9 8 0 14 7 14 15 0 8 -6 15 -13 15z"/>
<path d="M2394 508 c-22 2 -43 0 -47 -4 -4 -4 -7 -16 -7 -26 0 -10 -9 -36 -20
-57 -18 -36 -18 -40 -3 -53 9 -7 28 -39 43 -70 20 -41 30 -54 37 -45 5 6 17
31 27 54 11 23 27 50 37 59 12 11 16 21 10 28 -5 6 -16 34 -24 61 -13 48 -15
50 -53 53z m10 -98 c5 -5 6 -16 3 -24 -4 -9 -11 -16 -17 -16 -6 0 -13 7 -17
16 -3 9 0 20 8 25 8 4 18 4 23 -1z"/>
</g>
</svg>
